<svg width="89" height="73" viewBox="0 0 89 73" fill="none" xmlns="http://www.w3.org/2000/svg">
<path d="M37.1708 0L29.2044 25.5505L48.4291 32.7374L76.5373 17.6011L37.1708 0Z" fill="url(#paint0_linear_1_213)" fill-opacity="0.9"/>
<path d="M28.5635 26.1501L47.4333 33.2043L0.0642919 50.0956L1.81302 21.0447L28.5713 26.1253L28.5635 26.1501Z" fill="url(#paint1_linear_1_213)" fill-opacity="0.9"/>
<path d="M0.0129113 50.9491L48.1318 33.7905L70.349 73H12.7143L0 51.1636L0.0129113 50.9491Z" fill="url(#paint2_linear_1_213)" fill-opacity="0.9"/>
<path d="M48.7832 33.4319L71.065 72.7555L89 53.5458L77.1308 18.1667L48.7832 33.4319Z" fill="url(#paint3_linear_1_213)" fill-opacity="0.9"/>
<path d="M28.5124 25.3082L36.2747 0.412201L2.76972 20.4204L28.5124 25.3082Z" fill="url(#paint4_linear_1_213)" fill-opacity="0.9"/>
<defs>
<linearGradient id="paint0_linear_1_213" x1="44.5" y1="0" x2="44.5" y2="73" gradientUnits="userSpaceOnUse">
<stop stop-color="#F40354"/>
<stop offset="1" stop-color="#B7155A"/>
</linearGradient>
<linearGradient id="paint1_linear_1_213" x1="44.5" y1="0" x2="44.5" y2="73" gradientUnits="userSpaceOnUse">
<stop stop-color="#F40354"/>
<stop offset="1" stop-color="#B7155A"/>
</linearGradient>
<linearGradient id="paint2_linear_1_213" x1="44.5" y1="0" x2="44.5" y2="73" gradientUnits="userSpaceOnUse">
<stop stop-color="#F40354"/>
<stop offset="1" stop-color="#B7155A"/>
</linearGradient>
<linearGradient id="paint3_linear_1_213" x1="44.5" y1="0" x2="44.5" y2="73" gradientUnits="userSpaceOnUse">
<stop stop-color="#F40354"/>
<stop offset="1" stop-color="#B7155A"/>
</linearGradient>
<linearGradient id="paint4_linear_1_213" x1="44.5" y1="0" x2="44.5" y2="73" gradientUnits="userSpaceOnUse">
<stop stop-color="#F40354"/>
<stop offset="1" stop-color="#B7155A"/>
</linearGradient>
</defs>
</svg>
