<svg width="69" height="78" viewBox="0 0 69 78" fill="none" xmlns="http://www.w3.org/2000/svg">
<path fill-rule="evenodd" clip-rule="evenodd" d="M57.6215 0C61.4479 2.20914 62.7589 7.10186 60.5497 10.9282L40.634 45.4232C40.8713 46.1264 41 46.8797 41 47.663C41 49.5479 40.255 51.2588 39.0433 52.5173L42.2477 57.8772C44.4495 53.0321 49.3313 49.663 55 49.663C62.732 49.663 69 55.931 69 63.663C69 71.395 62.732 77.663 55 77.663C49.9001 77.663 45.437 74.936 42.9895 70.8607L42.8745 70.9294L34.2112 56.4387L26.9155 69.0752C24.799 74.1198 19.8133 77.663 14 77.663C6.26801 77.663 0 71.395 0 63.663C0 55.931 6.26801 49.663 14 49.663C19.6395 49.663 24.5002 52.9974 26.718 57.8023L29.484 53.0116C27.9647 51.7275 27 49.8079 27 47.663C27 46.7782 27.1641 45.9318 27.4637 45.1525L7.10516 11.1C4.83796 7.30777 6.07422 2.39562 9.86645 0.128418L34.1007 40.6637L34.1439 40.6644L57.6215 0ZM48.1401 67.7814C49.5394 70.1071 52.088 71.663 55 71.663C59.4183 71.663 63 68.0812 63 63.663C63 59.2447 59.4183 55.663 55 55.663C50.5817 55.663 47 59.2447 47 63.663C47 64.9365 47.2976 66.1405 47.827 67.2093L48.1614 67.7686L48.1401 67.7814ZM31.3255 46.3025C31.1174 46.7109 31 47.1732 31 47.663C31 48.0157 31.0609 48.3541 31.1727 48.6685C31.2677 48.9358 31.3996 49.1856 31.5622 49.4119C31.6014 49.4664 31.6424 49.5196 31.6851 49.5712C32.2353 50.238 33.068 50.663 34 50.663C34.932 50.663 35.7647 50.238 36.3149 49.5712C36.3866 49.4844 36.4535 49.3934 36.5152 49.2988C36.8218 48.8283 37 48.2664 37 47.663C37 47.2221 36.9049 46.8033 36.734 46.4263C36.7043 46.3605 36.6722 46.2961 36.6379 46.233C36.1299 45.2978 35.1391 44.663 34 44.663C33.9271 44.663 33.8547 44.6656 33.7831 44.6707C32.7085 44.7475 31.7905 45.3902 31.3255 46.3025ZM14 71.663C18.4183 71.663 22 68.0812 22 63.663C22 59.2447 18.4183 55.663 14 55.663C9.58172 55.663 6 59.2447 6 63.663C6 68.0812 9.58172 71.663 14 71.663Z" fill="url(#paint0_linear_1_189)" fill-opacity="0.9"/>
<defs>
<linearGradient id="paint0_linear_1_189" x1="34.5" y1="0" x2="34.5" y2="77.663" gradientUnits="userSpaceOnUse">
<stop stop-color="#F40354"/>
<stop offset="1" stop-color="#B7155A"/>
</linearGradient>
</defs>
</svg>
